<?xml version="1.0" encoding="UTF-8"?>
<!DOCTYPE svg PUBLIC "-//W3C//DTD SVG 1.1//EN" "http://www.w3.org/Graphics/SVG/1.1/DTD/svg11.dtd">
<!-- Creator: CorelDRAW X8 -->
<svg xmlns="http://www.w3.org/2000/svg" xml:space="preserve" width="7.0298mm" height="8.4668mm" version="1.1" style="shape-rendering:geometricPrecision; text-rendering:geometricPrecision; image-rendering:optimizeQuality; fill-rule:evenodd; clip-rule:evenodd"
viewBox="0 0 703 847"
 xmlns:xlink="http://www.w3.org/1999/xlink">
 <defs>
  <style type="text/css">
   <![CDATA[
    .fil4 {fill:#64438E}
    .fil7 {fill:#8C3EE6}
    .fil6 {fill:#B458F7}
    .fil3 {fill:#DDAAFF}
    .fil2 {fill:#EDD3FD}
    .fil0 {fill:#F7A2CC}
    .fil1 {fill:#FCF8FE}
    .fil5 {fill:#FF98B7}
    .fil8 {fill:#FFCCDB}
   ]]>
  </style>
 </defs>
 <g id="Слой_x0020_1">
  <metadata id="CorelCorpID_0Corel-Layer"/>
  <g id="_2287487985936">
   <path class="fil0" d="M330 844l0 -13 14 -1 0 14 -14 0zm38 -844l29 0c3,1 6,1 9,3l5 5c7,8 7,5 17,9l4 1c0,5 1,5 1,11 14,0 10,3 15,5l0 24c3,0 3,0 6,1 4,1 5,3 6,7 1,3 1,2 1,5l37 0c1,5 0,0 2,3 1,1 0,-2 2,2 1,3 1,5 1,8l23 0c2,5 3,2 5,6 1,2 1,6 1,10 14,0 25,-4 29,6l2 9 19 0c0,-4 0,-8 0,-12 0,-5 0,-9 2,-13 1,-1 0,-2 5,-4 0,0 1,-1 1,-1l7 -1c0,-7 3,-11 9,-12 4,-2 16,-1 21,-1 8,0 18,-1 20,8 2,7 0,49 0,58 0,15 2,20 -4,25 0,0 -1,0 -1,0 -4,3 -3,2 -9,2l0 50c5,0 8,-1 11,3 1,0 1,1 1,1 4,5 2,59 2,67l7 0c0,-10 4,-13 13,-13l0 -21c4,-2 1,-6 6,-8 5,-2 18,-2 23,0 6,2 2,3 7,5l0 98c-5,1 -6,3 -12,3l0 194c7,0 8,2 12,3l0 17c-3,1 0,0 -2,2 -1,1 -1,2 -1,2 -5,7 -9,5 -9,16 0,9 2,44 -1,52l-1 2c0,1 -1,5 -1,6 -1,2 -1,5 -1,7 -2,6 -9,6 -11,11 -4,8 0,25 -3,35 -2,5 -2,10 -5,14 -7,7 -5,3 -7,13l-2 5c-1,4 1,-2 0,2 -3,7 -6,8 -10,14 -6,8 1,21 -6,28l-6 4c-2,1 -1,1 -4,1 0,6 -1,12 -9,14 -15,2 -60,-5 -70,2l-7 9c0,0 -1,1 -1,1 -2,3 -4,1 -7,4 -3,2 -4,5 -7,8 0,0 0,0 -1,0 0,0 0,0 0,1l-3 1c-13,7 -6,9 -13,15 -2,2 -2,0 -3,3l-22 0c0,3 0,5 -1,7 -2,6 0,-1 -2,5l-7 0 -147 0c-1,-1 -2,-1 -3,-3l-3 -9 -119 0c-2,-4 -6,-1 -8,-11 -1,-2 -1,-4 -1,-6 -15,0 -29,3 -29,-13 -4,0 -4,0 -7,-1l-4 -3c-1,-1 0,0 -1,-2l-1 -8c-3,0 -6,0 -8,-1 -3,0 -3,0 -6,-4 -1,-2 0,0 -1,-3 -1,-2 -1,-4 -1,-6 -7,0 -18,2 -23,-3 -3,-3 -3,-6 -3,-12 -14,0 -16,1 -16,-14l-3 0c-1,-2 -1,-3 -8,-3 -3,-12 -4,-4 -4,-12 -11,0 -14,-3 -14,-15 0,-9 0,-18 0,-27l-6 -1c-1,0 -1,0 -1,0 -6,-3 -4,-5 -7,-6l0 -80c-2,0 -2,0 -4,0l-7 -5c0,0 -1,-1 -1,-1l-1 -7 -10 0 -4 -5c-3,-2 1,0 -3,-2l0 -21c-5,0 -11,-2 -13,-8l0 -135c-6,0 -6,0 -11,-1 -1,-4 -2,-5 -2,-10l0 -23c0,-4 1,-9 2,-14 19,-2 29,-2 48,0 0,15 -1,8 -2,15l0 12 7 4c1,-4 0,-3 3,-4l0 -11c-2,-1 -3,1 -2,-6 0,-8 2,4 2,-22 2,-3 1,-10 1,-15l14 0 0 -56c4,-2 7,-4 11,-4l0 -37c-4,0 -8,0 -11,-3 -5,-5 -3,-31 -3,-38 -3,0 -7,0 -8,-1 -3,-2 -3,-2 -5,-6 -2,-5 -2,-55 -1,-61l1 -4c3,-7 6,-7 14,-7 16,0 20,1 20,16 8,0 12,0 13,7 1,4 1,14 1,19 3,0 4,-1 7,1l5 3 3 12 21 0c0,-4 0,-7 2,-10l5 -4c0,0 0,-1 1,-1 0,0 0,0 1,0l7 -2c0,-7 0,-9 4,-13l20 -13c0,0 0,0 1,-1 0,0 1,0 1,-1l15 -10c0,0 1,-1 1,-1 0,0 2,-2 2,-2 4,-4 6,-9 6,-16 2,-12 -6,-24 -19,-27 0,0 0,0 -1,0l-14 -2c1,-5 0,-2 2,-4l19 -8c2,0 8,0 10,0 10,0 23,-3 28,6 1,1 1,1 1,1l1 6 36 0 1 -6c0,0 0,0 0,-1 0,0 0,0 0,0 3,-5 8,-6 13,-6 0,-17 15,-13 28,-13 0,-4 0,-10 3,-12 4,-3 7,-3 12,-3 0,-11 3,-14 15,-14 0,-3 0,-5 0,-7 2,-5 3,-5 7,-7l6 -1c0,-2 0,-2 1,-4l3 -9c4,0 4,-1 9,-1zm-294 502l0 -14 28 0 0 -14 14 0 1 -14 13 0 1 -15 0 -99 14 0 0 -57 14 0 0 -29 15 0 0 -28 14 0 0 -15 14 0 0 -14 14 0 0 -14 14 0 1 -14 14 0 0 -15 28 0 0 -14 43 0 0 -14 114 0 0 14 43 0 0 14 28 1 0 14 14 0 0 14 15 0 0 14 14 0 0 14 14 1 0 28 14 0 0 43 15 0 0 71 14 0 0 100 14 0 0 128 14 0 0 85 -14 0 0 29 -14 0 0 14 -14 0 0 14 -72 0 0 14 -14 1 0 14 -14 0 0 14 -29 0 0 14 -85 0 0 -14 -28 0 -1 -14 -14 0 0 -14 -28 0 0 14 -100 0 0 -14 -14 0 0 -15 -14 0 -1 -28 -28 0 0 -14 -14 0 0 -15 -14 0 -1 -113 -42 -1 0 -14 -14 0 -1 -42 15 -1z"/>
   <path class="fil1" d="M344 573l0 -14 57 0 1 -13c2,-2 0,-1 3,-2 1,0 3,0 3,0 3,0 5,0 8,0l0 -13 14 0 0 -14 14 -1 1 -14 28 1 -1 56 -13 1 -1 13 -14 1 0 14 -85 0 0 -13c-4,0 -6,0 -9,0 -7,0 -5,-1 -6,-2zm0 -56l0 42 -14 0 0 -42 14 0zm29 -15l0 14 -29 1 1 -14 28 -1zm14 -14l0 14 -14 0 0 -14 14 0zm0 0l1 -14 13 0 0 14 -14 0zm-100 -43l29 0 0 15 -28 -1 -1 -14zm29 0l0 -14 14 0 0 14 -14 0zm-29 0l-14 0 0 -14 14 0 0 14zm156 -70c4,5 1,33 2,42l27 0 15 0 0 15 0 27 0 15 -15 0 -42 -1 0 -41c-8,-1 -15,0 -23,0 -5,0 -16,1 -19,-2l-1 -13 -14 0 0 -43 14 0 0 -14 43 0 0 14 13 1zm-198 -200l0 14 -1 14 -13 1 -1 13 -13 1 -1 13 -14 1 -14 0 -1 28 -13 0 -1 29 -14 0 0 57 -14 0 0 56 0 1 15 0 28 -1 0 -42 14 0 0 -14 43 0 0 14 14 0 0 42 -14 1 -1 13c-4,3 -34,1 -42,2l0 27 0 15 -15 0 -27 0 -1 71 -14 0 0 14 0 57 14 0 0 14 14 0 1 -14 13 0 1 -14 14 0 0 57 14 0 0 14 14 0 1 14 56 0 1 -14 13 0 1 -14 14 0 0 -28 14 -1 0 14 14 1 0 42 14 1 1 13 14 1 0 14 85 0 1 -14 13 0 1 -14 14 -1 0 -14 14 0 0 -42 14 -1 1 -14 13 0 1 -71 -43 0 0 -43 14 0 0 -14 14 0 1 -43 13 0 1 -71 -14 0 -1 -71 -14 -1 0 -42 -14 0 0 -28 -14 -1 0 -14 -14 0 -1 -14 -14 0 0 -14 -42 0 -1 -14 -85 0 -43 -1 0 15 -28 0z"/>
   <path class="fil2" d="M316 161l85 0 1 14 42 0 0 14 14 0 1 14 14 0 0 14 14 1 0 28 14 0 0 42 14 1 1 71 14 0 -1 71 -13 0 -1 43 -14 0 0 14 -14 0 0 43 43 0 -1 71 -13 0 -1 14 -14 1 0 42 -14 0 0 14 -14 1 -1 14 -13 0 -1 14 -85 0 0 -14 -14 -1 -1 -13 -14 -1 0 -42 -14 -1 0 -14 -14 1 0 28 -14 0 -1 14 -13 0 -1 14 -56 0 -1 -14 -14 0 0 -14 -14 0 0 -57 -14 0 -1 14 -13 0 -1 14 -14 0 0 -14 -14 0 0 -57 -13 0 0 127 13 0 0 -13 28 0 1 -14 13 0 1 43 14 0 0 14 14 0 0 14 86 0 0 -14 14 0 0 -43 14 0 0 57 14 0 0 14 29 0 0 15 85 0 0 -14 29 -1 0 -14 14 0 0 -28 14 -1 0 -28 14 0 1 14 42 0 0 -14 14 0 1 -71 -14 0 -1 -128 -14 0 0 -100 -14 0 0 -71 -14 0 0 -43 -14 0 -1 -29 -14 0 0 -14 -14 0 0 -14 13 0 0 -13c-5,0 -9,0 -14,0 -4,0 -10,1 -13,-2l0 -14 -43 0 0 -14 -114 0 0 15z"/>
   <path class="fil3" d="M374 759l83 0 1 13 -84 0 0 -13zm84 -14l28 0 0 13 -27 0 -1 -13zm-85 0l0 13 -27 0 0 -13 27 0zm114 -15l13 0 0 14 -13 -1 0 -13zm-143 0l0 14 -13 0 1 -14 12 0zm-141 0l98 0 0 14 -98 0 0 -14zm298 -14l13 0 0 13 -13 0 0 -13zm-299 -14l0 27 -13 0 0 -27 13 0zm314 0l70 0 0 13 -71 0 1 -13zm71 -28l13 -1 0 28 -13 0 0 -27zm-399 14l0 13 -13 0 0 -13 13 0zm-42 -15l27 1 0 13 -27 0 0 -14zm455 -84l13 0 0 83 -8 0 -5 0 0 -83zm-14 -1l0 -127 13 0 0 127 -13 0zm-15 -128l0 -99 14 0 -1 99 -13 0zm-14 -100l0 -70 13 0 0 70 -13 0zm-14 -71l0 -42 13 0 0 42 -13 0zm-14 -43l0 -27 13 0 0 27 -13 0zm-15 -29l0 -13 14 0 -1 13 -13 0zm-14 -14l0 -13 14 0 -1 13 -13 0zm0 0l0 14 14 0 1 29 14 0 0 43 14 0 0 71 14 0 0 100 14 0 1 128 14 0 -1 71 -14 0 0 14 -42 0 -1 -14 -14 0 0 28 -14 1 0 28 -14 0 0 14 -29 1 0 14 -85 0 0 -15 -29 0 0 -14 -14 0 0 13 -28 0 0 -13 -86 0 0 -14 -14 0 0 -14 -14 0 -1 -43 -13 0 -1 14 -28 0 0 13 -13 0 0 -127 13 0 0 -14 -14 0 0 15 0 127 14 1 0 14 28 0 0 14 14 0 1 28 14 1 0 14 100 0 0 -14 28 0 0 14 14 0 0 14 29 0 0 14 85 0 1 -14 28 0 0 -14 14 0 1 -14 13 -1 1 -14 71 0 0 -14 14 0 0 -28 14 -1 0 -85 -14 -1 0 -127 -14 -1 0 -99 -14 -1 -1 -70 -14 -1 0 -42 -14 -1 0 -28 -14 0 0 -14 -14 0 -1 -14 -14 -1 0 -13 -28 -1c3,3 9,2 13,2 5,0 9,0 14,0l0 13 -13 0 0 14 14 0z"/>
   <path class="fil2" d="M402 546l13 0 0 13 -14 0 0 15 -57 -1c1,1 -1,2 6,2 3,0 5,0 9,0l0 13 85 0 0 -14 14 -1 1 -13 13 -1 1 -56 -28 -1 -1 14 -14 1 0 14 -14 0 0 13c-3,0 -5,0 -8,0 0,0 -2,0 -3,0 -3,1 -1,0 -3,2z"/>
   <polygon class="fil4" points="188,402 202,403 202,416 244,416 245,403 259,402 259,360 245,360 245,346 202,346 202,360 188,360 "/>
   <polygon class="fil4" points="388,430 429,430 430,417 444,417 443,375 430,374 430,360 387,360 387,374 373,374 373,417 387,417 "/>
   <path class="fil5" d="M187 403l14 0 0 14 -13 0 -1 -14zm-42 42l0 14 0 0 1 -14 13 0 1 15 27 0 1 -14 14 -1 0 -27c8,-1 38,1 42,-2l-42 0 0 -13 -14 -1 -28 1 -1 14 -13 0 -1 -14 0 -1 0 43z"/>
   <polygon class="fil4" points="131,673 131,546 116,545 74,545 74,559 116,560 117,673 "/>
   <polygon class="fil4" points="615,588 615,460 601,460 601,587 "/>
   <path class="fil5" d="M429 430l2 0 0 -13 13 1 0 13 -1 29 30 0 14 -1 0 -27 -14 -1 -1 -14 -27 0c-1,-9 2,-37 -2,-42l1 42 -14 0 -1 13z"/>
   <polygon class="fil2" points="587,588 600,588 600,461 587,461 "/>
   <polygon class="fil4" points="316,146 430,146 430,132 316,132 "/>
   <path class="fil2" d="M116 531l0 -14 -14 -1 0 -12 -27 0 0 40 40 0c0,-4 0,-10 1,-13z"/>
   <polygon class="fil4" points="131,445 145,445 145,402 145,346 131,346 "/>
   <polygon class="fil4" points="601,460 601,360 587,360 587,459 "/>
   <polygon class="fil4" points="302,745 202,745 202,759 302,759 "/>
   <path class="fil3" d="M116 531c-1,3 -1,9 -1,13l-40 0 0 -40 27 0 0 12 14 1 0 14zm-14 -43l0 14 -28 0 0 43 42 0 0 -14 15 0 -1 -57 -14 0 0 14 -14 0z"/>
   <polygon class="fil2" points="572,460 585,460 586,361 572,361 "/>
   <polygon class="fil2" points="203,744 301,744 301,730 203,730 "/>
   <polygon class="fil6" points="130,460 130,474 131,531 145,531 145,459 145,445 131,445 "/>
   <polygon class="fil4" points="615,673 629,673 629,588 615,588 "/>
   <polygon class="fil4" points="458,773 373,773 373,787 458,787 "/>
   <polygon class="fil2" points="601,672 606,672 614,672 614,589 601,589 "/>
   <polygon class="fil2" points="374,772 458,772 457,759 374,759 "/>
   <path class="fil3" d="M58 360c2,-3 1,-10 1,-15l14 0 0 -56c-3,1 -3,5 -3,9l-7 1c-4,2 -4,3 -6,7l-1 8 -8 0 -4 6c0,0 -3,2 0,9 2,5 5,6 12,6l0 20c0,7 -1,3 2,5z"/>
   <path class="fil0" d="M472 474l1 -14 -30 0 1 -29 -13 -1 -2 0 -41 0c3,3 14,2 19,2 8,0 15,-1 23,0l0 41 42 1z"/>
   <polygon class="fil2" points="145,531 159,531 160,460 145,459 145,459 "/>
   <polygon class="fil3" points="302,716 330,716 330,659 316,659 316,702 302,702 "/>
   <polygon class="fil4" points="587,360 587,289 572,289 573,359 "/>
   <polygon class="fil4" points="515,730 587,730 587,716 516,716 "/>
   <polygon class="fil2" points="558,360 571,360 571,290 558,290 "/>
   <polygon class="fil2" points="515,715 586,715 586,702 516,702 "/>
   <polygon class="fil4" points="145,346 159,346 159,289 145,289 "/>
   <polygon class="fil7" points="344,573 401,574 401,559 344,559 "/>
   <polygon class="fil4" points="273,160 316,161 316,146 273,146 "/>
   <polygon class="fil4" points="572,289 572,246 558,246 558,288 "/>
   <polygon class="fil4" points="74,545 74,502 59,503 60,545 "/>
   <polygon class="fil4" points="473,160 473,146 430,146 430,160 "/>
   <polygon class="fil7" points="344,559 344,517 330,517 330,559 "/>
   <polygon class="fil2" points="544,289 557,289 557,247 544,247 "/>
   <polygon class="fil4" points="245,175 273,175 273,160 245,160 "/>
   <polygon class="fil4" points="316,445 287,445 288,459 316,460 "/>
   <polygon class="fil4" points="174,260 187,260 188,232 174,232 "/>
   <polygon class="fil4" points="159,289 173,289 174,260 159,260 "/>
   <polygon class="fil6" points="344,517 373,516 373,502 345,503 "/>
   <polygon class="fil4" points="558,246 558,218 544,217 544,245 "/>
   <polygon class="fil4" points="188,730 187,702 173,702 174,730 "/>
   <polygon class="fil4" points="173,702 173,688 145,688 145,702 "/>
   <polygon class="fil4" points="74,502 102,502 102,488 74,488 "/>
   <polygon class="fil4" points="601,702 615,702 615,673 601,674 "/>
   <polygon class="fil4" points="373,773 373,759 344,759 345,773 "/>
   <polygon class="fil4" points="473,174 501,175 501,161 473,160 "/>
   <polygon class="fil4" points="458,773 487,773 487,759 459,759 "/>
   <polygon class="fil4" points="302,745 330,745 330,731 302,731 "/>
   <polygon class="fil2" points="330,716 302,716 302,729 330,729 "/>
   <polygon class="fil2" points="373,745 346,745 346,758 373,758 "/>
   <polygon class="fil2" points="458,745 459,758 486,758 486,745 "/>
   <polygon class="fil2" points="530,246 543,246 543,219 530,219 "/>
   <polygon class="fil2" points="587,701 600,701 600,673 587,674 "/>
   <polygon class="fil2" points="202,702 189,702 189,729 202,729 "/>
   <polygon class="fil2" points="146,687 173,687 173,674 146,673 "/>
   <polygon class="fil4" points="216,203 231,204 230,189 216,189 "/>
   <polygon class="fil4" points="202,217 217,218 216,203 202,203 "/>
   <polygon class="fil8" points="187,460 202,460 202,445 188,446 "/>
   <polygon class="fil2" points="231,204 244,203 245,189 230,189 "/>
   <polygon class="fil2" points="202,232 216,231 217,218 202,217 "/>
   <polygon class="fil7" points="116,545 131,546 131,531 116,531 "/>
   <polygon class="fil4" points="188,232 202,232 202,217 188,217 "/>
   <polygon class="fil4" points="230,189 245,189 245,175 231,175 "/>
   <polygon class="fil8" points="487,432 487,417 472,417 473,431 "/>
   <polygon class="fil8" points="160,403 145,403 146,417 159,417 "/>
   <polygon class="fil8" points="145,459 160,460 159,445 146,445 "/>
   <polygon class="fil8" points="472,474 487,474 487,459 473,460 "/>
   <polygon class="fil2" points="217,218 230,217 231,204 216,203 "/>
   <polygon class="fil4" points="102,488 116,488 116,474 102,474 "/>
   <polygon class="fil4" points="202,745 202,731 188,730 188,745 "/>
   <polygon class="fil4" points="145,688 145,674 131,673 131,688 "/>
   <polygon class="fil4" points="316,445 330,445 330,431 316,431 "/>
   <polygon class="fil4" points="544,217 544,203 530,203 530,217 "/>
   <polygon class="fil4" points="515,189 515,175 501,175 501,188 "/>
   <polygon class="fil4" points="487,759 501,759 501,745 487,745 "/>
   <polygon class="fil4" points="530,203 530,189 515,189 516,203 "/>
   <polygon class="fil6" points="373,502 387,502 387,488 373,488 "/>
   <polygon class="fil4" points="344,759 344,745 330,745 330,759 "/>
   <polygon class="fil4" points="501,745 515,744 515,730 502,731 "/>
   <polygon class="fil4" points="587,716 601,716 601,702 587,702 "/>
   <polygon class="fil4" points="287,445 287,431 273,431 273,445 "/>
   <polygon class="fil3" points="330,844 344,844 344,830 330,831 "/>
   <polygon class="fil4" points="116,474 130,474 130,460 117,460 "/>
   <polygon class="fil6" points="387,488 401,488 401,474 388,474 "/>
   <polygon class="fil8" points="188,417 201,417 201,403 187,403 "/>
   <polygon class="fil6" points="401,559 415,559 415,546 402,546 "/>
   <polygon class="fil2" points="487,730 487,743 500,744 500,730 "/>
   <polygon class="fil2" points="501,716 501,729 514,729 514,716 "/>
   <polygon class="fil2" points="344,730 332,730 331,744 344,744 "/>
   <polygon class="fil2" points="188,688 175,688 175,701 188,701 "/>
   <polygon class="fil2" points="515,217 528,217 529,204 515,204 "/>
   <polygon class="fil2" points="501,203 514,203 515,190 501,190 "/>
   <polygon class="fil8" points="431,430 444,431 444,418 431,417 "/>
  </g>
 </g>
</svg>
