<?xml version="1.0" encoding="UTF-8"?>
<!DOCTYPE svg PUBLIC "-//W3C//DTD SVG 1.1//EN" "http://www.w3.org/Graphics/SVG/1.1/DTD/svg11.dtd">
<!-- Creator: CorelDRAW X8 -->
<svg xmlns="http://www.w3.org/2000/svg"  width="50px" height="50px" version="1.1" 
viewBox="0 0 3950 3950"
 xmlns:xlink="http://www.w3.org/1999/xlink">
 <defs>
  <style type="text/css">
   <![CDATA[
    .fil0 {fill:black;fill-rule:nonzero}
   ]]>
  </style>
 </defs>
 <g id="cross">
  <metadata id="CorelCorpID_0Corel-Layer"/><path class="fil0" d="M0 3950l0 -790 790 0 0 790 -790 0zm3160 0l0 -790 790 0 0 790 -790 0zm-2370 -790l0 -790 790 0 0 790 -790 0zm1580 0l0 -790 790 0 0 790 -790 0zm-790 -790l0 -790 790 0 0 790 -790 0zm-790 -790l0 -790 790 0 0 790 -790 0zm1580 0l0 -790 790 0 0 790 -790 0zm-2370 -790l0 -790 790 0 0 790 -790 0zm3160 0l0 -790 790 0 0 790 -790 0z"/>
 </g>
</svg>
